<?xml version='1.0' encoding='utf-8'?>
<mlt LC_NUMERIC="en_US.UTF-8" producer="main_bin" root="D:/python/python-projects/104-manim-hw/media/bili/shoot_practice" version="7.33.0">
 <profile colorspace="709" description="HD 1080p 60 fps" display_aspect_den="9" display_aspect_num="16" frame_rate_den="1" frame_rate_num="60" height="1080" progressive="1" sample_aspect_den="1" sample_aspect_num="1" width="1920"/>
 <producer id="producer0" in="00:00:00.000" out="00:11:36.217">
  <property name="length">2147483647</property>
  <property name="eof">continue</property>
  <property name="resource">black</property>
  <property name="aspect_ratio">1</property>
  <property name="mlt_service">color</property>
  <property name="kdenlive:playlistid">black_track</property>
  <property name="mlt_image_format">rgba</property>
  <property name="set.test_audio">0</property>
 </producer>
 <playlist id="playlist0">
  <property name="kdenlive:audio_track">1</property>
 </playlist>
 <playlist id="playlist1">
  <property name="kdenlive:audio_track">1</property>
 </playlist>
 <tractor id="tractor0" in="00:00:00.000">
  <property name="kdenlive:audio_track">1</property>
  <property name="kdenlive:trackheight">64</property>
  <property name="kdenlive:timeline_active">1</property>
  <property name="kdenlive:collapsed">0</property>
  <property name="kdenlive:thumbs_format"/>
  <property name="kdenlive:audio_rec"/>
  <track hide="video" producer="playlist0"/>
  <track hide="video" producer="playlist1"/>
  <filter id="filter0">
   <property name="window">75</property>
   <property name="max_gain">20dB</property>
   <property name="channel_mask">-1</property>
   <property name="mlt_service">volume</property>
   <property name="internal_added">237</property>
   <property name="disable">1</property>
  </filter>
  <filter id="filter1">
   <property name="channel">-1</property>
   <property name="mlt_service">panner</property>
   <property name="internal_added">237</property>
   <property name="start">0.5</property>
   <property name="disable">1</property>
  </filter>
  <filter id="filter2">
   <property name="iec_scale">0</property>
   <property name="mlt_service">audiolevel</property>
   <property name="dbpeak">1</property>
   <property name="disable">1</property>
  </filter>
 </tractor>
 <chain id="chain0" out="00:06:36.200">
  <property name="length">23773</property>
  <property name="eof">pause</property>
  <property name="resource">shoot_merged.mp4</property>
  <property name="mlt_service">avformat-novalidate</property>
  <property name="seekable">1</property>
  <property name="audio_index">1</property>
  <property name="video_index">0</property>
  <property name="vstream">0</property>
  <property name="astream">0</property>
  <property name="kdenlive:folderid">-1</property>
  <property name="kdenlive:id">4</property>
  <property name="kdenlive:control_uuid">{07e20dcb-77cb-43a4-8646-f6cdef681ce8}</property>
  <property name="mute_on_pause">0</property>
  <property name="kdenlive:clip_type">0</property>
  <property name="kdenlive:file_size">333010236</property>
  <property name="kdenlive:file_hash">155be20ff981a1503ee00fafa4794677</property>
  <property name="kdenlive:monitorPosition">0</property>
  <property name="kdenlive:kextractor">1</property>
  <property name="meta.media.nb_streams">2</property>
  <property name="meta.media.0.stream.type">video</property>
  <property name="meta.media.0.stream.frame_rate">60</property>
  <property name="meta.media.0.stream.sample_aspect_ratio">1</property>
  <property name="meta.media.0.codec.width">1920</property>
  <property name="meta.media.0.codec.height">1080</property>
  <property name="meta.media.0.codec.rotate">0</property>
  <property name="meta.media.0.codec.pix_fmt">yuv420p</property>
  <property name="meta.media.0.codec.sample_aspect_ratio">1</property>
  <property name="meta.media.0.codec.colorspace">709</property>
  <property name="meta.media.0.codec.color_trc">1</property>
  <property name="meta.media.0.codec.name">h264</property>
  <property name="meta.media.0.codec.long_name">H.264 / AVC / MPEG-4 AVC / MPEG-4 part 10</property>
  <property name="meta.media.0.codec.bit_rate">6547326</property>
  <property name="meta.attr.0.stream.handler_name.markup">VideoHandler</property>
  <property name="meta.attr.0.stream.vendor_id.markup">[0][0][0][0]</property>
  <property name="meta.media.1.stream.type">audio</property>
  <property name="meta.media.1.codec.sample_fmt">fltp</property>
  <property name="meta.media.1.codec.sample_rate">48000</property>
  <property name="meta.media.1.codec.channels">2</property>
  <property name="meta.media.1.codec.layout">stereo</property>
  <property name="meta.media.1.codec.name">aac</property>
  <property name="meta.media.1.codec.long_name">AAC (Advanced Audio Coding)</property>
  <property name="meta.media.1.codec.bit_rate">163625</property>
  <property name="meta.attr.1.stream.handler_name.markup">SoundHandler</property>
  <property name="meta.attr.1.stream.vendor_id.markup">[0][0][0][0]</property>
  <property name="meta.attr.major_brand.markup">isom</property>
  <property name="meta.attr.minor_version.markup">512</property>
  <property name="meta.attr.compatible_brands.markup">isomiso2avc1mp41</property>
  <property name="meta.attr.encoder.markup">Lavf61.7.100</property>
  <property name="meta.media.sample_aspect_num">1</property>
  <property name="meta.media.sample_aspect_den">1</property>
  <property name="meta.media.frame_rate_num">60</property>
  <property name="meta.media.frame_rate_den">1</property>
  <property name="meta.media.colorspace">709</property>
  <property name="meta.media.color_trc">1</property>
  <property name="meta.media.has_b_frames">2</property>
  <property name="meta.media.width">1920</property>
  <property name="meta.media.height">1080</property>
  <property name="meta.media.aspect_ratio">1</property>
  <property name="meta.media.color_range">mpeg</property>
  <property name="xml">was here</property>
  <property name="meta.media.top_field_first">0</property>
  <property name="meta.media.progressive">1</property>
  <property name="set.test_audio">0</property>
  <property name="set.test_image">1</property>
 </chain>
 <playlist id="playlist2">
  <property name="kdenlive:audio_track">1</property>
  <entry in="00:00:00.000" out="00:05:42.317" producer="chain0">
   <property name="kdenlive:id">4</property>
  </entry>
  <entry in="00:05:42.333" out="00:06:31.317" producer="chain0">
   <property name="kdenlive:id">4</property>
  </entry>
  <entry in="00:06:31.333" out="00:06:32.550" producer="chain0">
   <property name="kdenlive:id">4</property>
  </entry>
  <entry in="00:06:32.567" out="00:06:32.950" producer="chain0">
   <property name="kdenlive:id">4</property>
  </entry>
  <entry in="00:06:32.967" out="00:06:36.200" producer="chain0">
   <property name="kdenlive:id">4</property>
  </entry>
 </playlist>
 <playlist id="playlist3">
  <property name="kdenlive:audio_track">1</property>
 </playlist>
 <tractor id="tractor1" in="00:00:00.000" out="00:06:36.200">
  <property name="kdenlive:audio_track">1</property>
  <property name="kdenlive:trackheight">64</property>
  <property name="kdenlive:timeline_active">1</property>
  <property name="kdenlive:collapsed">0</property>
  <property name="kdenlive:thumbs_format"/>
  <property name="kdenlive:audio_rec"/>
  <track hide="video" producer="playlist2"/>
  <track hide="video" producer="playlist3"/>
  <filter id="filter3">
   <property name="window">75</property>
   <property name="max_gain">20dB</property>
   <property name="channel_mask">-1</property>
   <property name="mlt_service">volume</property>
   <property name="internal_added">237</property>
   <property name="disable">1</property>
  </filter>
  <filter id="filter4">
   <property name="channel">-1</property>
   <property name="mlt_service">panner</property>
   <property name="internal_added">237</property>
   <property name="start">0.5</property>
   <property name="disable">1</property>
  </filter>
  <filter id="filter5">
   <property name="iec_scale">0</property>
   <property name="mlt_service">audiolevel</property>
   <property name="dbpeak">1</property>
   <property name="disable">1</property>
  </filter>
 </tractor>
 <chain id="chain1" out="00:06:36.200">
  <property name="length">23773</property>
  <property name="eof">pause</property>
  <property name="resource">shoot_merged.mp4</property>
  <property name="mlt_service">avformat-novalidate</property>
  <property name="seekable">1</property>
  <property name="audio_index">1</property>
  <property name="video_index">0</property>
  <property name="vstream">0</property>
  <property name="astream">0</property>
  <property name="kdenlive:folderid">-1</property>
  <property name="kdenlive:id">4</property>
  <property name="kdenlive:control_uuid">{07e20dcb-77cb-43a4-8646-f6cdef681ce8}</property>
  <property name="mute_on_pause">0</property>
  <property name="kdenlive:clip_type">0</property>
  <property name="kdenlive:file_size">333010236</property>
  <property name="kdenlive:file_hash">155be20ff981a1503ee00fafa4794677</property>
  <property name="kdenlive:monitorPosition">0</property>
  <property name="kdenlive:kextractor">1</property>
  <property name="meta.media.nb_streams">2</property>
  <property name="meta.media.0.stream.type">video</property>
  <property name="meta.media.0.stream.frame_rate">60</property>
  <property name="meta.media.0.stream.sample_aspect_ratio">1</property>
  <property name="meta.media.0.codec.width">1920</property>
  <property name="meta.media.0.codec.height">1080</property>
  <property name="meta.media.0.codec.rotate">0</property>
  <property name="meta.media.0.codec.pix_fmt">yuv420p</property>
  <property name="meta.media.0.codec.sample_aspect_ratio">1</property>
  <property name="meta.media.0.codec.colorspace">709</property>
  <property name="meta.media.0.codec.color_trc">1</property>
  <property name="meta.media.0.codec.name">h264</property>
  <property name="meta.media.0.codec.long_name">H.264 / AVC / MPEG-4 AVC / MPEG-4 part 10</property>
  <property name="meta.media.0.codec.bit_rate">6547326</property>
  <property name="meta.attr.0.stream.handler_name.markup">VideoHandler</property>
  <property name="meta.attr.0.stream.vendor_id.markup">[0][0][0][0]</property>
  <property name="meta.media.1.stream.type">audio</property>
  <property name="meta.media.1.codec.sample_fmt">fltp</property>
  <property name="meta.media.1.codec.sample_rate">48000</property>
  <property name="meta.media.1.codec.channels">2</property>
  <property name="meta.media.1.codec.layout">stereo</property>
  <property name="meta.media.1.codec.name">aac</property>
  <property name="meta.media.1.codec.long_name">AAC (Advanced Audio Coding)</property>
  <property name="meta.media.1.codec.bit_rate">163625</property>
  <property name="meta.attr.1.stream.handler_name.markup">SoundHandler</property>
  <property name="meta.attr.1.stream.vendor_id.markup">[0][0][0][0]</property>
  <property name="meta.attr.major_brand.markup">isom</property>
  <property name="meta.attr.minor_version.markup">512</property>
  <property name="meta.attr.compatible_brands.markup">isomiso2avc1mp41</property>
  <property name="meta.attr.encoder.markup">Lavf61.7.100</property>
  <property name="meta.media.sample_aspect_num">1</property>
  <property name="meta.media.sample_aspect_den">1</property>
  <property name="meta.media.frame_rate_num">60</property>
  <property name="meta.media.frame_rate_den">1</property>
  <property name="meta.media.colorspace">709</property>
  <property name="meta.media.color_trc">1</property>
  <property name="meta.media.has_b_frames">2</property>
  <property name="meta.media.width">1920</property>
  <property name="meta.media.height">1080</property>
  <property name="meta.media.aspect_ratio">1</property>
  <property name="meta.media.color_range">mpeg</property>
  <property name="xml">was here</property>
  <property name="meta.media.top_field_first">0</property>
  <property name="meta.media.progressive">1</property>
  <property name="set.test_audio">1</property>
  <property name="set.test_image">0</property>
 </chain>
 <playlist id="playlist4">
  <entry in="00:00:00.000" out="00:05:42.317" producer="chain1">
   <property name="kdenlive:id">4</property>
   <property name="kdenlive:activeeffect">-1</property>
  </entry>
  <entry in="00:05:42.333" out="00:06:31.317" producer="chain1">
   <property name="kdenlive:id">4</property>
   <property name="kdenlive:activeeffect">11</property>
   <filter id="filter6">
    <property name="start">449 336 200 50</property>
    <property name="end"/>
    <property name="mlt_service">obscure</property>
    <property name="kdenlive_id">obscure</property>
    <property name="kdenlive:collapsed">1</property>
   </filter>
   <filter id="filter7">
    <property name="start">729 336 200 50</property>
    <property name="end"/>
    <property name="mlt_service">obscure</property>
    <property name="kdenlive_id">obscure</property>
    <property name="kdenlive:collapsed">1</property>
   </filter>
   <filter id="filter8">
    <property name="start">996 336 200 50</property>
    <property name="end"/>
    <property name="mlt_service">obscure</property>
    <property name="kdenlive_id">obscure</property>
    <property name="kdenlive:collapsed">1</property>
   </filter>
   <filter id="filter9">
    <property name="start">1266 336 200 50</property>
    <property name="end"/>
    <property name="mlt_service">obscure</property>
    <property name="kdenlive_id">obscure</property>
    <property name="kdenlive:collapsed">1</property>
   </filter>
   <filter id="filter10">
    <property name="start">449 607 200 50</property>
    <property name="end"/>
    <property name="mlt_service">obscure</property>
    <property name="kdenlive_id">obscure</property>
    <property name="kdenlive:collapsed">1</property>
   </filter>
   <filter id="filter11">
    <property name="start">729 607 200 50</property>
    <property name="end"/>
    <property name="mlt_service">obscure</property>
    <property name="kdenlive_id">obscure</property>
    <property name="kdenlive:collapsed">1</property>
   </filter>
   <filter id="filter12">
    <property name="start">996 607 200 50</property>
    <property name="end"/>
    <property name="mlt_service">obscure</property>
    <property name="kdenlive_id">obscure</property>
    <property name="kdenlive:collapsed">1</property>
   </filter>
   <filter id="filter13">
    <property name="start">1266 607 200 50</property>
    <property name="end"/>
    <property name="mlt_service">obscure</property>
    <property name="kdenlive_id">obscure</property>
    <property name="kdenlive:collapsed">1</property>
   </filter>
   <filter id="filter14">
    <property name="start">449 874 200 50</property>
    <property name="end"/>
    <property name="mlt_service">obscure</property>
    <property name="kdenlive_id">obscure</property>
    <property name="kdenlive:collapsed">1</property>
   </filter>
   <filter id="filter15">
    <property name="start">729 874 200 50</property>
    <property name="end"/>
    <property name="mlt_service">obscure</property>
    <property name="kdenlive_id">obscure</property>
    <property name="kdenlive:collapsed">1</property>
   </filter>
   <filter id="filter16">
    <property name="start">996 874 200 50</property>
    <property name="end"/>
    <property name="mlt_service">obscure</property>
    <property name="kdenlive_id">obscure</property>
    <property name="kdenlive:collapsed">1</property>
   </filter>
   <filter id="filter17">
    <property name="start">1266 874 200 50</property>
    <property name="end"/>
    <property name="mlt_service">obscure</property>
    <property name="kdenlive_id">obscure</property>
    <property name="kdenlive:collapsed">1</property>
   </filter>
  </entry>
  <entry in="00:06:31.333" out="00:06:32.550" producer="chain1">
   <property name="kdenlive:id">4</property>
   <property name="kdenlive:activeeffect">11</property>
   <filter id="filter18">
    <property name="start">325 264 324 122</property>
    <property name="end"/>
    <property name="mlt_service">obscure</property>
    <property name="kdenlive_id">obscure</property>
    <property name="kdenlive:collapsed">1</property>
   </filter>
   <filter id="filter19">
    <property name="start">664 274 265 112</property>
    <property name="end"/>
    <property name="mlt_service">obscure</property>
    <property name="kdenlive_id">obscure</property>
    <property name="kdenlive:collapsed">1</property>
   </filter>
   <filter id="filter20">
    <property name="start">969 264 303 122</property>
    <property name="end"/>
    <property name="mlt_service">obscure</property>
    <property name="kdenlive_id">obscure</property>
    <property name="kdenlive:collapsed">1</property>
   </filter>
   <filter id="filter21">
    <property name="start">1266 274 325 112</property>
    <property name="end"/>
    <property name="mlt_service">obscure</property>
    <property name="kdenlive_id">obscure</property>
    <property name="kdenlive:collapsed">1</property>
   </filter>
   <filter id="filter22">
    <property name="start">339 607 310 91</property>
    <property name="end"/>
    <property name="mlt_service">obscure</property>
    <property name="kdenlive_id">obscure</property>
    <property name="kdenlive:collapsed">1</property>
   </filter>
   <filter id="filter23">
    <property name="start">674 597 256 85</property>
    <property name="end"/>
    <property name="mlt_service">obscure</property>
    <property name="kdenlive_id">obscure</property>
    <property name="kdenlive:collapsed">1</property>
   </filter>
   <filter id="filter24">
    <property name="start">996 590 248 107</property>
    <property name="end"/>
    <property name="mlt_service">obscure</property>
    <property name="kdenlive_id">obscure</property>
    <property name="kdenlive:collapsed">1</property>
   </filter>
   <filter id="filter25">
    <property name="start">1266 607 333 80</property>
    <property name="end"/>
    <property name="mlt_service">obscure</property>
    <property name="kdenlive_id">obscure</property>
    <property name="kdenlive:collapsed">1</property>
   </filter>
   <filter id="filter26">
    <property name="start">335 874 314 127</property>
    <property name="end"/>
    <property name="mlt_service">obscure</property>
    <property name="kdenlive_id">obscure</property>
    <property name="kdenlive:collapsed">1</property>
   </filter>
   <filter id="filter27">
    <property name="start">674 874 255 113</property>
    <property name="end"/>
    <property name="mlt_service">obscure</property>
    <property name="kdenlive_id">obscure</property>
    <property name="kdenlive:collapsed">1</property>
   </filter>
   <filter id="filter28">
    <property name="start">986 874 270 146</property>
    <property name="end"/>
    <property name="mlt_service">obscure</property>
    <property name="kdenlive_id">obscure</property>
    <property name="kdenlive:collapsed">1</property>
   </filter>
   <filter id="filter29">
    <property name="start">1266 874 316 135</property>
    <property name="end"/>
    <property name="mlt_service">obscure</property>
    <property name="kdenlive_id">obscure</property>
    <property name="kdenlive:collapsed">1</property>
   </filter>
  </entry>
  <entry in="00:06:32.567" out="00:06:32.950" producer="chain1">
   <property name="kdenlive:id">4</property>
   <filter id="filter30">
    <property name="start">244 202 1447 789</property>
    <property name="end"/>
    <property name="mlt_service">obscure</property>
    <property name="kdenlive_id">obscure</property>
    <property name="kdenlive:collapsed">0</property>
   </filter>
  </entry>
  <entry in="00:06:32.967" out="00:06:36.200" producer="chain1">
   <property name="kdenlive:id">4</property>
   <property name="kdenlive:activeeffect">-1</property>
  </entry>
 </playlist>
 <playlist id="playlist5"/>
 <tractor id="tractor2" in="00:00:00.000" out="00:06:36.200">
  <property name="kdenlive:trackheight">64</property>
  <property name="kdenlive:timeline_active">1</property>
  <property name="kdenlive:collapsed">0</property>
  <property name="kdenlive:thumbs_format"/>
  <property name="kdenlive:audio_rec"/>
  <track hide="audio" producer="playlist4"/>
  <track hide="audio" producer="playlist5"/>
 </tractor>
 <playlist id="playlist6"/>
 <playlist id="playlist7"/>
 <tractor id="tractor3" in="00:00:00.000">
  <property name="kdenlive:trackheight">64</property>
  <property name="kdenlive:timeline_active">1</property>
  <property name="kdenlive:collapsed">0</property>
  <property name="kdenlive:thumbs_format"/>
  <property name="kdenlive:audio_rec"/>
  <track hide="audio" producer="playlist6"/>
  <track hide="audio" producer="playlist7"/>
 </tractor>
 <tractor id="{53324635-9e08-4590-8c46-5d65daedfb33}" in="00:00:00.000" out="00:06:36.200">
  <property name="kdenlive:uuid">{53324635-9e08-4590-8c46-5d65daedfb33}</property>
  <property name="kdenlive:clipname">序列 1</property>
  <property name="kdenlive:sequenceproperties.hasAudio">1</property>
  <property name="kdenlive:sequenceproperties.hasVideo">1</property>
  <property name="kdenlive:sequenceproperties.activeTrack">2</property>
  <property name="kdenlive:sequenceproperties.tracksCount">4</property>
  <property name="kdenlive:sequenceproperties.documentuuid">{53324635-9e08-4590-8c46-5d65daedfb33}</property>
  <property name="kdenlive:control_uuid">{53324635-9e08-4590-8c46-5d65daedfb33}</property>
  <property name="kdenlive:duration">00:06:36.217</property>
  <property name="kdenlive:maxduration">23773</property>
  <property name="kdenlive:producer_type">17</property>
  <property name="kdenlive:id">3</property>
  <property name="kdenlive:clip_type">0</property>
  <property name="kdenlive:file_size">0</property>
  <property name="kdenlive:folderid">2</property>
  <property name="kdenlive:sequenceproperties.audioTarget">1</property>
  <property name="kdenlive:sequenceproperties.disablepreview">0</property>
  <property name="kdenlive:sequenceproperties.position">837</property>
  <property name="kdenlive:sequenceproperties.scrollPos">0</property>
  <property name="kdenlive:sequenceproperties.tracks">4</property>
  <property name="kdenlive:sequenceproperties.verticalzoom">1</property>
  <property name="kdenlive:sequenceproperties.videoTarget">2</property>
  <property name="kdenlive:sequenceproperties.zonein">0</property>
  <property name="kdenlive:sequenceproperties.zoneout">75</property>
  <property name="kdenlive:sequenceproperties.zoom">13</property>
  <property name="kdenlive:sequenceproperties.groups">[
    {
        "children": [
            {
                "data": "1:23578:-1",
                "leaf": "clip",
                "type": "Leaf"
            },
            {
                "data": "2:23578:-1",
                "leaf": "clip",
                "type": "Leaf"
            }
        ],
        "type": "AVSplit"
    },
    {
        "children": [
            {
                "data": "1:0:-1",
                "leaf": "clip",
                "type": "Leaf"
            },
            {
                "data": "2:0:-1",
                "leaf": "clip",
                "type": "Leaf"
            }
        ],
        "type": "AVSplit"
    },
    {
        "children": [
            {
                "data": "2:20540:-1",
                "leaf": "clip",
                "type": "Leaf"
            },
            {
                "data": "1:20540:-1",
                "leaf": "clip",
                "type": "Leaf"
            }
        ],
        "type": "AVSplit"
    },
    {
        "children": [
            {
                "data": "2:23554:-1",
                "leaf": "clip",
                "type": "Leaf"
            },
            {
                "data": "1:23554:-1",
                "leaf": "clip",
                "type": "Leaf"
            }
        ],
        "type": "AVSplit"
    },
    {
        "children": [
            {
                "data": "2:23480:-1",
                "leaf": "clip",
                "type": "Leaf"
            },
            {
                "data": "1:23480:-1",
                "leaf": "clip",
                "type": "Leaf"
            }
        ],
        "type": "AVSplit"
    }
]
</property>
  <property name="kdenlive:sequenceproperties.guides">[
]
</property>
  <track producer="producer0"/>
  <track producer="tractor0"/>
  <track producer="tractor1"/>
  <track producer="tractor2"/>
  <track producer="tractor3"/>
  <transition id="transition0">
   <property name="a_track">0</property>
   <property name="b_track">1</property>
   <property name="mlt_service">mix</property>
   <property name="kdenlive_id">mix</property>
   <property name="internal_added">237</property>
   <property name="always_active">1</property>
   <property name="accepts_blanks">1</property>
   <property name="sum">1</property>
  </transition>
  <transition id="transition1">
   <property name="a_track">0</property>
   <property name="b_track">2</property>
   <property name="mlt_service">mix</property>
   <property name="kdenlive_id">mix</property>
   <property name="internal_added">237</property>
   <property name="always_active">1</property>
   <property name="accepts_blanks">1</property>
   <property name="sum">1</property>
  </transition>
  <transition id="transition2">
   <property name="a_track">0</property>
   <property name="b_track">3</property>
   <property name="compositing">0</property>
   <property name="distort">0</property>
   <property name="rotate_center">0</property>
   <property name="mlt_service">qtblend</property>
   <property name="kdenlive_id">qtblend</property>
   <property name="internal_added">237</property>
   <property name="always_active">1</property>
  </transition>
  <transition id="transition3">
   <property name="a_track">0</property>
   <property name="b_track">4</property>
   <property name="compositing">0</property>
   <property name="distort">0</property>
   <property name="rotate_center">0</property>
   <property name="mlt_service">qtblend</property>
   <property name="kdenlive_id">qtblend</property>
   <property name="internal_added">237</property>
   <property name="always_active">1</property>
  </transition>
  <filter id="filter31">
   <property name="window">75</property>
   <property name="max_gain">20dB</property>
   <property name="channel_mask">-1</property>
   <property name="mlt_service">volume</property>
   <property name="internal_added">237</property>
   <property name="disable">1</property>
  </filter>
  <filter id="filter32">
   <property name="channel">-1</property>
   <property name="mlt_service">panner</property>
   <property name="internal_added">237</property>
   <property name="start">0.5</property>
   <property name="disable">1</property>
  </filter>
 </tractor>
 <chain id="chain2" out="00:06:36.200">
  <property name="length">23773</property>
  <property name="eof">pause</property>
  <property name="resource">shoot_merged.mp4</property>
  <property name="mlt_service">avformat-novalidate</property>
  <property name="meta.media.nb_streams">2</property>
  <property name="meta.media.0.stream.type">video</property>
  <property name="meta.media.0.stream.frame_rate">60</property>
  <property name="meta.media.0.stream.sample_aspect_ratio">1</property>
  <property name="meta.media.0.codec.width">1920</property>
  <property name="meta.media.0.codec.height">1080</property>
  <property name="meta.media.0.codec.rotate">0</property>
  <property name="meta.media.0.codec.pix_fmt">yuv420p</property>
  <property name="meta.media.0.codec.sample_aspect_ratio">1</property>
  <property name="meta.media.0.codec.colorspace">709</property>
  <property name="meta.media.0.codec.color_trc">1</property>
  <property name="meta.media.0.codec.name">h264</property>
  <property name="meta.media.0.codec.long_name">H.264 / AVC / MPEG-4 AVC / MPEG-4 part 10</property>
  <property name="meta.media.0.codec.bit_rate">6547326</property>
  <property name="meta.attr.0.stream.handler_name.markup">VideoHandler</property>
  <property name="meta.attr.0.stream.vendor_id.markup">[0][0][0][0]</property>
  <property name="meta.media.1.stream.type">audio</property>
  <property name="meta.media.1.codec.sample_fmt">fltp</property>
  <property name="meta.media.1.codec.sample_rate">48000</property>
  <property name="meta.media.1.codec.channels">2</property>
  <property name="meta.media.1.codec.layout">stereo</property>
  <property name="meta.media.1.codec.name">aac</property>
  <property name="meta.media.1.codec.long_name">AAC (Advanced Audio Coding)</property>
  <property name="meta.media.1.codec.bit_rate">163625</property>
  <property name="meta.attr.1.stream.handler_name.markup">SoundHandler</property>
  <property name="meta.attr.1.stream.vendor_id.markup">[0][0][0][0]</property>
  <property name="meta.attr.major_brand.markup">isom</property>
  <property name="meta.attr.minor_version.markup">512</property>
  <property name="meta.attr.compatible_brands.markup">isomiso2avc1mp41</property>
  <property name="meta.attr.encoder.markup">Lavf61.7.100</property>
  <property name="seekable">1</property>
  <property name="meta.media.sample_aspect_num">1</property>
  <property name="meta.media.sample_aspect_den">1</property>
  <property name="audio_index">1</property>
  <property name="video_index">0</property>
  <property name="vstream">0</property>
  <property name="meta.media.frame_rate_num">60</property>
  <property name="meta.media.frame_rate_den">1</property>
  <property name="meta.media.colorspace">709</property>
  <property name="meta.media.color_trc">1</property>
  <property name="meta.media.has_b_frames">2</property>
  <property name="meta.media.width">1920</property>
  <property name="meta.media.height">1080</property>
  <property name="meta.media.aspect_ratio">1</property>
  <property name="meta.media.color_range">mpeg</property>
  <property name="astream">0</property>
  <property name="meta.media.top_field_first">0</property>
  <property name="meta.media.progressive">1</property>
  <property name="kdenlive:folderid">-1</property>
  <property name="kdenlive:id">4</property>
  <property name="kdenlive:control_uuid">{07e20dcb-77cb-43a4-8646-f6cdef681ce8}</property>
  <property name="mute_on_pause">0</property>
  <property name="kdenlive:clip_type">0</property>
  <property name="kdenlive:file_size">333010236</property>
  <property name="kdenlive:file_hash">155be20ff981a1503ee00fafa4794677</property>
  <property name="kdenlive:monitorPosition">0</property>
  <property name="kdenlive:kextractor">1</property>
 </chain>
 <playlist id="main_bin">
  <property name="kdenlive:folder.-1.2">序列</property>
  <property name="kdenlive:sequenceFolder">2</property>
  <property name="kdenlive:docproperties.audioChannels">2</property>
  <property name="kdenlive:docproperties.binsort">0</property>
  <property name="kdenlive:docproperties.browserurl">D:/js_practice/slidev-math-videos/media/251114/</property>
  <property name="kdenlive:docproperties.documentid">1764554954288</property>
  <property name="kdenlive:docproperties.enableTimelineZone">0</property>
  <property name="kdenlive:docproperties.enableexternalproxy">0</property>
  <property name="kdenlive:docproperties.enableproxy">1</property>
  <property name="kdenlive:docproperties.externalproxyparams">./;;.LRV;./;;.MP4</property>
  <property name="kdenlive:docproperties.generateimageproxy">0</property>
  <property name="kdenlive:docproperties.generateproxy">0</property>
  <property name="kdenlive:docproperties.guidesCategories">[
    {
        "color": "#9b59b6",
        "comment": "类别 1",
        "index": 0
    },
    {
        "color": "#3daee9",
        "comment": "类别 2",
        "index": 1
    },
    {
        "color": "#1abc9c",
        "comment": "类别 3",
        "index": 2
    },
    {
        "color": "#1cdc9a",
        "comment": "类别 4",
        "index": 3
    },
    {
        "color": "#c9ce3b",
        "comment": "类别 5",
        "index": 4
    },
    {
        "color": "#fdbc4b",
        "comment": "类别 6",
        "index": 5
    },
    {
        "color": "#f39c1f",
        "comment": "类别 7",
        "index": 6
    },
    {
        "color": "#f47750",
        "comment": "类别 8",
        "index": 7
    },
    {
        "color": "#da4453",
        "comment": "类别 9",
        "index": 8
    }
]
</property>
  <property name="kdenlive:docproperties.kdenliveversion">25.08.3</property>
  <property name="kdenlive:docproperties.previewextension"/>
  <property name="kdenlive:docproperties.previewparameters"/>
  <property name="kdenlive:docproperties.profile">atsc_1080p_60</property>
  <property name="kdenlive:docproperties.proxyextension"/>
  <property name="kdenlive:docproperties.proxyimageminsize">2000</property>
  <property name="kdenlive:docproperties.proxyimagesize">800</property>
  <property name="kdenlive:docproperties.proxyminsize">1000</property>
  <property name="kdenlive:docproperties.proxyparams"/>
  <property name="kdenlive:docproperties.proxyresize">640</property>
  <property name="kdenlive:docproperties.seekOffset">7500</property>
  <property name="kdenlive:docproperties.sessionid">{5e8d8146-cbf4-43c0-ad58-752791553153}</property>
  <property name="kdenlive:docproperties.uuid">{53324635-9e08-4590-8c46-5d65daedfb33}</property>
  <property name="kdenlive:docproperties.version">1.1</property>
  <property name="kdenlive:expandedFolders"/>
  <property name="kdenlive:binZoom">4</property>
  <property name="kdenlive:extraBins">project_bin:-1:0</property>
  <property name="kdenlive:documentnotes"/>
  <property name="kdenlive:documentnotesversion">2</property>
  <property name="kdenlive:docproperties.opensequences">{53324635-9e08-4590-8c46-5d65daedfb33}</property>
  <property name="kdenlive:docproperties.activetimeline">{53324635-9e08-4590-8c46-5d65daedfb33}</property>
  <property name="kdenlive:docproperties.rendercategory">Generic (HD for web, mobile devices...)</property>
  <property name="kdenlive:docproperties.rendercustomquality">-1</property>
  <property name="kdenlive:docproperties.renderendguide">-1</property>
  <property name="kdenlive:docproperties.renderexportaudio">0</property>
  <property name="kdenlive:docproperties.renderfullcolorrange">0</property>
  <property name="kdenlive:docproperties.rendermode">0</property>
  <property name="kdenlive:docproperties.renderplay">0</property>
  <property name="kdenlive:docproperties.renderpreview">0</property>
  <property name="kdenlive:docproperties.renderprofile">MP4-H264/AAC</property>
  <property name="kdenlive:docproperties.renderrescale">0</property>
  <property name="kdenlive:docproperties.renderrescaleheight">540</property>
  <property name="kdenlive:docproperties.renderrescalewidth">960</property>
  <property name="kdenlive:docproperties.renderspeed">6</property>
  <property name="kdenlive:docproperties.renderstartguide">-1</property>
  <property name="kdenlive:docproperties.renderstemaudio">0</property>
  <property name="kdenlive:docproperties.rendertcoverlay">0</property>
  <property name="kdenlive:docproperties.rendertctype">-1</property>
  <property name="kdenlive:docproperties.rendertwopass">0</property>
  <property name="kdenlive:docproperties.renderurl">shoot_merged_mosaic.mp4</property>
  <property name="xml_retain">1</property>
  <entry in="00:00:00.000" out="00:00:00.000" producer="{53324635-9e08-4590-8c46-5d65daedfb33}"/>
  <entry in="00:00:00.000" out="00:06:36.200" producer="chain2"/>
 </playlist>
 <tractor id="tractor4" in="00:00:00.000" out="00:06:36.200">
  <property name="kdenlive:projectTractor">1</property>
  <track in="00:00:00.000" out="00:06:36.200" producer="{53324635-9e08-4590-8c46-5d65daedfb33}"/>
 </tractor>
</mlt>
