<?xml version='1.0' encoding='utf-8'?>
<mlt LC_NUMERIC="en_US.UTF-8" producer="main_bin" root="D:/python/python-projects/104-manim-hw/media/bili/tri_sina_add_2sinb_eq_2sinc" version="7.33.0">
 <profile colorspace="709" description="HD 1080p 60 fps" display_aspect_den="9" display_aspect_num="16" frame_rate_den="1" frame_rate_num="60" height="1080" progressive="1" sample_aspect_den="1" sample_aspect_num="1" width="1920"/>
 <producer id="producer1" in="00:00:00.000" out="00:00:04.983">
  <property name="length">00:00:05.000</property>
  <property name="eof">pause</property>
  <property name="resource">D:/视频制作素材/IMG_1526.JPG</property>
  <property name="ttl">25</property>
  <property name="aspect_ratio">1</property>
  <property name="meta.media.progressive">1</property>
  <property name="seekable">1</property>
  <property name="format">1</property>
  <property name="meta.media.width">4032</property>
  <property name="meta.media.height">3024</property>
  <property name="mlt_service">qimage</property>
  <property name="kdenlive:duration">00:00:05:00</property>
  <property name="xml">was here</property>
  <property name="kdenlive:folderid">4</property>
  <property name="kdenlive:id">5</property>
  <property name="kdenlive:control_uuid">{2b8b67b5-3b3a-4e04-bb1c-d9b8fadeadbd}</property>
  <property name="kdenlive:clip_type">2</property>
  <property name="kdenlive:file_size">3921996</property>
  <property name="kdenlive:file_hash">7226a670c1f349fcf2bb57deeea61f6e</property>
 </producer>
 <producer id="tractor4" in="00:00:00.000" out="00:00:04.533">
  <property name="length">273</property>
  <property name="eof">pause</property>
  <property name="resource">D:/视频制作素材/三连+关注-南澳岛背景版.kdenlive</property>
  <property name="mlt_service">xml</property>
  <property name="kdenlive:projectTractor">1</property>
  <property name="xml">was here</property>
  <property name="seekable">1</property>
  <property name="kdenlive:folderid">4</property>
  <property name="kdenlive:id">6</property>
  <property name="kdenlive:control_uuid">{c8a5339d-2d14-4954-b9ac-0badba5cdcec}</property>
  <property name="kdenlive:clip_type">0</property>
  <property name="kdenlive:file_size">34774</property>
  <property name="kdenlive:file_hash">3694fd5a63ac395f33e4694ac03620e5</property>
 </producer>
 <chain id="chain3" out="00:00:04.550">
  <property name="length">274</property>
  <property name="eof">pause</property>
  <property name="resource">D:/视频制作素材/三连+关注-南澳岛背景版.mp4</property>
  <property name="mlt_service">avformat-novalidate</property>
  <property name="meta.media.nb_streams">2</property>
  <property name="meta.media.0.stream.type">video</property>
  <property name="meta.media.0.stream.frame_rate">60</property>
  <property name="meta.media.0.stream.sample_aspect_ratio">1</property>
  <property name="meta.media.0.codec.width">1920</property>
  <property name="meta.media.0.codec.height">1080</property>
  <property name="meta.media.0.codec.rotate">0</property>
  <property name="meta.media.0.codec.pix_fmt">yuv420p</property>
  <property name="meta.media.0.codec.sample_aspect_ratio">1</property>
  <property name="meta.media.0.codec.colorspace">709</property>
  <property name="meta.media.0.codec.color_trc">1</property>
  <property name="meta.media.0.codec.name">h264</property>
  <property name="meta.media.0.codec.long_name">H.264 / AVC / MPEG-4 AVC / MPEG-4 part 10</property>
  <property name="meta.media.0.codec.bit_rate">4367287</property>
  <property name="meta.attr.0.stream.handler_name.markup">VideoHandler</property>
  <property name="meta.attr.0.stream.vendor_id.markup">[0][0][0][0]</property>
  <property name="meta.media.1.stream.type">audio</property>
  <property name="meta.media.1.codec.sample_fmt">fltp</property>
  <property name="meta.media.1.codec.sample_rate">48000</property>
  <property name="meta.media.1.codec.channels">2</property>
  <property name="meta.media.1.codec.layout">stereo</property>
  <property name="meta.media.1.codec.name">aac</property>
  <property name="meta.media.1.codec.long_name">AAC (Advanced Audio Coding)</property>
  <property name="meta.media.1.codec.bit_rate">2279</property>
  <property name="meta.attr.1.stream.handler_name.markup">SoundHandler</property>
  <property name="meta.attr.1.stream.vendor_id.markup">[0][0][0][0]</property>
  <property name="meta.attr.major_brand.markup">isom</property>
  <property name="meta.attr.minor_version.markup">512</property>
  <property name="meta.attr.compatible_brands.markup">isomiso2avc1mp41</property>
  <property name="meta.attr.encoder.markup">Lavf61.7.100</property>
  <property name="seekable">1</property>
  <property name="meta.media.sample_aspect_num">1</property>
  <property name="meta.media.sample_aspect_den">1</property>
  <property name="audio_index">1</property>
  <property name="video_index">0</property>
  <property name="vstream">0</property>
  <property name="meta.media.frame_rate_num">60</property>
  <property name="meta.media.frame_rate_den">1</property>
  <property name="meta.media.colorspace">709</property>
  <property name="meta.media.color_trc">1</property>
  <property name="meta.media.has_b_frames">2</property>
  <property name="meta.media.width">1920</property>
  <property name="meta.media.height">1080</property>
  <property name="meta.media.aspect_ratio">1</property>
  <property name="meta.media.color_range">mpeg</property>
  <property name="astream">0</property>
  <property name="meta.media.top_field_first">0</property>
  <property name="meta.media.progressive">1</property>
  <property name="kdenlive:folderid">4</property>
  <property name="kdenlive:id">7</property>
  <property name="kdenlive:control_uuid">{3918eb7b-bed0-441d-9329-b0856ef7d02d}</property>
  <property name="mute_on_pause">0</property>
  <property name="kdenlive:clip_type">0</property>
  <property name="kdenlive:file_size">2493987</property>
  <property name="kdenlive:file_hash">c0852781be4f94f74f00481814faf440</property>
  <property name="kdenlive:kextractor">1</property>
  <property name="kdenlive:monitorPosition">0</property>
 </chain>
 <chain id="chain2" out="00:00:02.650">
  <property name="length">160</property>
  <property name="eof">pause</property>
  <property name="resource">D:/视频制作素材/三连+关注.mp3</property>
  <property name="mlt_service">avformat</property>
  <property name="meta.media.nb_streams">1</property>
  <property name="meta.media.0.stream.type">audio</property>
  <property name="meta.media.0.codec.sample_fmt">fltp</property>
  <property name="meta.media.0.codec.sample_rate">24000</property>
  <property name="meta.media.0.codec.channels">1</property>
  <property name="meta.media.0.codec.layout">mono</property>
  <property name="meta.media.0.codec.name">mp3float</property>
  <property name="meta.media.0.codec.long_name">MP3 (MPEG audio layer 3)</property>
  <property name="meta.media.0.codec.bit_rate">48000</property>
  <property name="seekable">1</property>
  <property name="audio_index">0</property>
  <property name="video_index">-1</property>
  <property name="astream">0</property>
  <property name="kdenlive:folderid">4</property>
  <property name="kdenlive:id">8</property>
  <property name="kdenlive:control_uuid">{95f3f5fa-a2b1-453b-a46f-68f3466e21d9}</property>
  <property name="kdenlive:clip_type">1</property>
  <property name="kdenlive:file_size">15984</property>
  <property name="kdenlive:file_hash">73e348a43c4294bb51597ba39a15a767</property>
  <property name="kdenlive:kextractor">1</property>
  <property name="kdenlive:meta.extractor.Bitrate">48 kb/s</property>
 </chain>
 <producer id="producer2" in="00:00:00.000" out="00:00:04.983">
  <property name="length">00:00:05.000</property>
  <property name="eof">pause</property>
  <property name="resource">D:/视频制作素材/南澳岛.jpg</property>
  <property name="ttl">25</property>
  <property name="aspect_ratio">1</property>
  <property name="meta.media.progressive">1</property>
  <property name="seekable">1</property>
  <property name="format">1</property>
  <property name="meta.media.width">4032</property>
  <property name="meta.media.height">3024</property>
  <property name="mlt_service">qimage</property>
  <property name="kdenlive:duration">00:00:05:00</property>
  <property name="xml">was here</property>
  <property name="kdenlive:folderid">4</property>
  <property name="kdenlive:id">9</property>
  <property name="kdenlive:control_uuid">{7aacc25c-67d7-4cfb-b049-6b4bb3e9895e}</property>
  <property name="kdenlive:clip_type">2</property>
  <property name="kdenlive:file_size">4830880</property>
  <property name="kdenlive:file_hash">640173a869949ba7250898545ac273cb</property>
 </producer>
 <chain id="chain4" out="00:00:01.033">
  <property name="length">63</property>
  <property name="eof">pause</property>
  <property name="resource">D:/视频制作素材/海绵宝宝点赞.gif</property>
  <property name="mlt_service">avformat-novalidate</property>
  <property name="meta.media.nb_streams">1</property>
  <property name="meta.media.0.stream.type">video</property>
  <property name="meta.media.0.stream.frame_rate">33.3333</property>
  <property name="meta.media.0.stream.sample_aspect_ratio">0</property>
  <property name="meta.media.0.codec.width">380</property>
  <property name="meta.media.0.codec.height">280</property>
  <property name="meta.media.0.codec.rotate">0</property>
  <property name="meta.media.0.codec.pix_fmt">bgra</property>
  <property name="meta.media.0.codec.sample_aspect_ratio">0</property>
  <property name="meta.media.0.codec.colorspace">601</property>
  <property name="meta.media.0.codec.name">gif</property>
  <property name="meta.media.0.codec.long_name">GIF (Graphics Interchange Format)</property>
  <property name="meta.media.0.codec.bit_rate">0</property>
  <property name="seekable">1</property>
  <property name="meta.media.sample_aspect_num">1</property>
  <property name="meta.media.sample_aspect_den">1</property>
  <property name="audio_index">-1</property>
  <property name="video_index">0</property>
  <property name="vstream">0</property>
  <property name="meta.media.frame_rate_num">100</property>
  <property name="meta.media.frame_rate_den">3</property>
  <property name="meta.media.colorspace">601</property>
  <property name="meta.media.color_trc">2</property>
  <property name="meta.media.has_b_frames">0</property>
  <property name="meta.media.width">380</property>
  <property name="meta.media.height">280</property>
  <property name="meta.media.aspect_ratio">1</property>
  <property name="meta.media.color_range">mpeg</property>
  <property name="meta.media.top_field_first">0</property>
  <property name="meta.media.progressive">1</property>
  <property name="kdenlive:folderid">4</property>
  <property name="kdenlive:id">10</property>
  <property name="kdenlive:control_uuid">{360d1e44-1d93-4e75-820a-66ff0a65b8ab}</property>
  <property name="mute_on_pause">0</property>
  <property name="kdenlive:clip_type">2</property>
  <property name="kdenlive:file_size">987826</property>
  <property name="kdenlive:file_hash">146d2728b3720587c673fd350dc88f80</property>
 </chain>
 <chain id="chain5" out="00:00:04.533">
  <property name="length">273</property>
  <property name="eof">pause</property>
  <property name="resource">D:/视频制作素材/用PPT做B站的一键三连动画-24fps.mp4</property>
  <property name="mlt_service">avformat-novalidate</property>
  <property name="meta.media.nb_streams">1</property>
  <property name="meta.media.0.stream.type">video</property>
  <property name="meta.media.0.stream.frame_rate">24</property>
  <property name="meta.media.0.stream.sample_aspect_ratio">1</property>
  <property name="meta.media.0.codec.width">1920</property>
  <property name="meta.media.0.codec.height">1080</property>
  <property name="meta.media.0.codec.rotate">0</property>
  <property name="meta.media.0.codec.pix_fmt">yuv420p</property>
  <property name="meta.media.0.codec.sample_aspect_ratio">1</property>
  <property name="meta.media.0.codec.colorspace">709</property>
  <property name="meta.media.0.codec.name">h264</property>
  <property name="meta.media.0.codec.long_name">H.264 / AVC / MPEG-4 AVC / MPEG-4 part 10</property>
  <property name="meta.media.0.codec.bit_rate">2888992</property>
  <property name="meta.attr.0.stream.handler_name.markup">VideoHandler</property>
  <property name="meta.attr.0.stream.vendor_id.markup">[0][0][0][0]</property>
  <property name="meta.attr.0.stream.encoder.markup">Lavc61.19.100 libx264</property>
  <property name="meta.attr.major_brand.markup">isom</property>
  <property name="meta.attr.minor_version.markup">512</property>
  <property name="meta.attr.compatible_brands.markup">isomiso2avc1mp41</property>
  <property name="meta.attr.encoder.markup">Lavf61.7.100</property>
  <property name="meta.attr.description.markup">Packed by Bilibili XCoder v2.0.2</property>
  <property name="seekable">1</property>
  <property name="meta.media.sample_aspect_num">1</property>
  <property name="meta.media.sample_aspect_den">1</property>
  <property name="audio_index">-1</property>
  <property name="video_index">0</property>
  <property name="vstream">0</property>
  <property name="meta.media.frame_rate_num">24</property>
  <property name="meta.media.frame_rate_den">1</property>
  <property name="meta.media.colorspace">709</property>
  <property name="meta.media.color_trc">2</property>
  <property name="meta.media.has_b_frames">0</property>
  <property name="meta.media.width">1920</property>
  <property name="meta.media.height">1080</property>
  <property name="meta.media.aspect_ratio">1</property>
  <property name="meta.media.color_range">mpeg</property>
  <property name="meta.media.top_field_first">0</property>
  <property name="meta.media.progressive">1</property>
  <property name="kdenlive:folderid">4</property>
  <property name="kdenlive:id">11</property>
  <property name="kdenlive:control_uuid">{612d6454-13a2-49f9-9055-c33ce15cef51}</property>
  <property name="mute_on_pause">0</property>
  <property name="kdenlive:clip_type">2</property>
  <property name="kdenlive:file_size">1641448</property>
  <property name="kdenlive:file_hash">f92047597ba96c0135e270d1885c9f4d</property>
 </chain>
 <chain id="chain7" out="00:00:04.517">
  <property name="length">272</property>
  <property name="eof">pause</property>
  <property name="resource">D:/视频制作素材/用PPT做B站的一键三连动画.mp4</property>
  <property name="mlt_service">avformat-novalidate</property>
  <property name="meta.media.nb_streams">1</property>
  <property name="meta.media.0.stream.type">video</property>
  <property name="meta.media.0.stream.frame_rate">24</property>
  <property name="meta.media.0.stream.sample_aspect_ratio">1</property>
  <property name="meta.media.0.codec.width">1920</property>
  <property name="meta.media.0.codec.height">1080</property>
  <property name="meta.media.0.codec.rotate">0</property>
  <property name="meta.media.0.codec.pix_fmt">yuv420p</property>
  <property name="meta.media.0.codec.sample_aspect_ratio">1</property>
  <property name="meta.media.0.codec.colorspace">709</property>
  <property name="meta.media.0.codec.name">h264</property>
  <property name="meta.media.0.codec.long_name">H.264 / AVC / MPEG-4 AVC / MPEG-4 part 10</property>
  <property name="meta.media.0.codec.bit_rate">858472</property>
  <property name="meta.attr.0.stream.handler_name.markup">VideoHandler</property>
  <property name="meta.attr.0.stream.vendor_id.markup">[0][0][0][0]</property>
  <property name="meta.attr.major_brand.markup">iso5</property>
  <property name="meta.attr.minor_version.markup">1</property>
  <property name="meta.attr.compatible_brands.markup">avc1iso5dsmsmsixdash</property>
  <property name="meta.attr.encoder.markup">Lavf57.71.100</property>
  <property name="meta.attr.description.markup">Packed by Bilibili XCoder v2.0.2</property>
  <property name="seekable">1</property>
  <property name="meta.media.sample_aspect_num">1</property>
  <property name="meta.media.sample_aspect_den">1</property>
  <property name="audio_index">-1</property>
  <property name="video_index">0</property>
  <property name="vstream">0</property>
  <property name="meta.media.frame_rate_num">24</property>
  <property name="meta.media.frame_rate_den">1</property>
  <property name="meta.media.colorspace">709</property>
  <property name="meta.media.color_trc">2</property>
  <property name="meta.media.has_b_frames">2</property>
  <property name="meta.media.width">1920</property>
  <property name="meta.media.height">1080</property>
  <property name="meta.media.aspect_ratio">1</property>
  <property name="meta.media.color_range">mpeg</property>
  <property name="meta.media.variable_frame_rate">1</property>
  <property name="meta.media.top_field_first">0</property>
  <property name="meta.media.progressive">1</property>
  <property name="kdenlive:folderid">4</property>
  <property name="kdenlive:id">12</property>
  <property name="kdenlive:control_uuid">{a78602bd-a9c4-42a8-b022-11658a1aa301}</property>
  <property name="mute_on_pause">0</property>
  <property name="kdenlive:clip_type">2</property>
  <property name="kdenlive:file_size">489731</property>
  <property name="kdenlive:file_hash">2cbb623d269fcd98f7edad89c961d795</property>
 </chain>
 <chain id="chain6" out="00:03:24.333">
  <property name="length">12261</property>
  <property name="eof">pause</property>
  <property name="resource">D:/视频制作素材/羽根 .mp3</property>
  <property name="mlt_service">avformat</property>
  <property name="meta.media.nb_streams">1</property>
  <property name="meta.media.0.stream.type">audio</property>
  <property name="meta.media.0.codec.sample_fmt">fltp</property>
  <property name="meta.media.0.codec.sample_rate">48000</property>
  <property name="meta.media.0.codec.channels">2</property>
  <property name="meta.media.0.codec.layout">stereo</property>
  <property name="meta.media.0.codec.name">aac</property>
  <property name="meta.media.0.codec.long_name">AAC (Advanced Audio Coding)</property>
  <property name="meta.media.0.codec.bit_rate">143540</property>
  <property name="meta.attr.0.stream.handler_name.markup">Bento4 Sound Handler</property>
  <property name="meta.attr.0.stream.vendor_id.markup">[0][0][0][0]</property>
  <property name="meta.attr.major_brand.markup">isom</property>
  <property name="meta.attr.minor_version.markup">512</property>
  <property name="meta.attr.compatible_brands.markup">isomiso2avc1mp41iso5</property>
  <property name="meta.attr.encoder.markup">Lavf59.27.100</property>
  <property name="meta.attr.description.markup">Packed by Bilibili XCoder v2.0.2</property>
  <property name="seekable">1</property>
  <property name="audio_index">0</property>
  <property name="video_index">-1</property>
  <property name="astream">0</property>
  <property name="kdenlive:folderid">4</property>
  <property name="kdenlive:id">13</property>
  <property name="kdenlive:control_uuid">{d3236ed1-1ce6-4cd1-9553-5ca17aa4acfc}</property>
  <property name="kdenlive:clip_type">1</property>
  <property name="kdenlive:file_size">4307120</property>
  <property name="kdenlive:file_hash">a77a0bdecc3947c795a5766fe3ad2281</property>
  <property name="kdenlive:kextractor">1</property>
  <property name="kdenlive:monitorPosition">0</property>
 </chain>
 <chain id="chain8" out="00:02:27.983">
  <property name="length">8880</property>
  <property name="eof">pause</property>
  <property name="resource">D:/python/python-projects/104-manim-hw/media/videos/tri_2sinc_sol1/1080p60/Tri2sinCSol1.mp4</property>
  <property name="mlt_service">avformat-novalidate</property>
  <property name="meta.media.nb_streams">1</property>
  <property name="meta.media.0.stream.type">video</property>
  <property name="meta.media.0.stream.frame_rate">60</property>
  <property name="meta.media.0.stream.sample_aspect_ratio">0</property>
  <property name="meta.media.0.codec.width">1920</property>
  <property name="meta.media.0.codec.height">1080</property>
  <property name="meta.media.0.codec.rotate">0</property>
  <property name="meta.media.0.codec.pix_fmt">yuv420p</property>
  <property name="meta.media.0.codec.sample_aspect_ratio">0</property>
  <property name="meta.media.0.codec.colorspace">709</property>
  <property name="meta.media.0.codec.name">h264</property>
  <property name="meta.media.0.codec.long_name">H.264 / AVC / MPEG-4 AVC / MPEG-4 part 10</property>
  <property name="meta.media.0.codec.bit_rate">904189</property>
  <property name="meta.attr.0.stream.handler_name.markup">VideoHandler</property>
  <property name="meta.attr.0.stream.vendor_id.markup">[0][0][0][0]</property>
  <property name="meta.attr.major_brand.markup">isom</property>
  <property name="meta.attr.minor_version.markup">512</property>
  <property name="meta.attr.compatible_brands.markup">isomiso2avc1mp41</property>
  <property name="meta.attr.encoder.markup">Lavf61.1.100</property>
  <property name="meta.attr.comment.markup">Rendered with Manim Community v0.19.0</property>
  <property name="seekable">1</property>
  <property name="meta.media.sample_aspect_num">1</property>
  <property name="meta.media.sample_aspect_den">1</property>
  <property name="audio_index">-1</property>
  <property name="video_index">0</property>
  <property name="vstream">0</property>
  <property name="meta.media.frame_rate_num">60</property>
  <property name="meta.media.frame_rate_den">1</property>
  <property name="meta.media.colorspace">709</property>
  <property name="meta.media.color_trc">2</property>
  <property name="meta.media.has_b_frames">2</property>
  <property name="meta.media.width">1920</property>
  <property name="meta.media.height">1080</property>
  <property name="meta.media.aspect_ratio">1</property>
  <property name="meta.media.color_range">mpeg</property>
  <property name="meta.media.top_field_first">0</property>
  <property name="meta.media.progressive">1</property>
  <property name="kdenlive:folderid">-1</property>
  <property name="kdenlive:id">14</property>
  <property name="kdenlive:control_uuid">{c33def83-2a09-44b1-bdb6-16367a504a2f}</property>
  <property name="mute_on_pause">0</property>
  <property name="kdenlive:clip_type">2</property>
  <property name="kdenlive:file_size">16605695</property>
  <property name="kdenlive:kextractor">1</property>
  <property name="kdenlive:monitorPosition">0</property>
  <property name="kdenlive:file_hash">f028dace7dc562af57f77f6e248b5cbe</property>
 </chain>
 <chain id="chain9" out="00:01:42.850">
  <property name="length">6172</property>
  <property name="eof">pause</property>
  <property name="resource">tri_2sinc_sol1.mp3</property>
  <property name="mlt_service">avformat</property>
  <property name="meta.media.nb_streams">1</property>
  <property name="meta.media.0.stream.type">audio</property>
  <property name="meta.media.0.codec.sample_fmt">fltp</property>
  <property name="meta.media.0.codec.sample_rate">24000</property>
  <property name="meta.media.0.codec.channels">1</property>
  <property name="meta.media.0.codec.layout">mono</property>
  <property name="meta.media.0.codec.name">mp3float</property>
  <property name="meta.media.0.codec.long_name">MP3 (MPEG audio layer 3)</property>
  <property name="meta.media.0.codec.bit_rate">48000</property>
  <property name="seekable">1</property>
  <property name="audio_index">0</property>
  <property name="video_index">-1</property>
  <property name="astream">0</property>
  <property name="kdenlive:folderid">-1</property>
  <property name="kdenlive:id">15</property>
  <property name="kdenlive:control_uuid">{648648d1-a6d3-40d0-989a-58ca8f544db5}</property>
  <property name="kdenlive:clip_type">1</property>
  <property name="kdenlive:file_size">617184</property>
  <property name="kdenlive:file_hash">cbbe83467de768aa4e42fdc9545135b3</property>
  <property name="kdenlive:kextractor">1</property>
  <property name="kdenlive:meta.extractor.Bitrate">48 kb/s</property>
  <property name="kdenlive:monitorPosition">0</property>
 </chain>
 <producer id="producer0" in="00:00:00.000" out="00:06:47.433">
  <property name="length">2147483647</property>
  <property name="eof">continue</property>
  <property name="resource">black</property>
  <property name="aspect_ratio">1</property>
  <property name="mlt_service">color</property>
  <property name="kdenlive:playlistid">black_track</property>
  <property name="mlt_image_format">rgba</property>
  <property name="set.test_audio">0</property>
 </producer>
 <chain id="chain0" out="00:03:24.333">
  <property name="length">12261</property>
  <property name="eof">pause</property>
  <property name="resource">D:/视频制作素材/羽根 .mp3</property>
  <property name="mlt_service">avformat-novalidate</property>
  <property name="seekable">1</property>
  <property name="audio_index">0</property>
  <property name="video_index">-1</property>
  <property name="astream">0</property>
  <property name="kdenlive:folderid">4</property>
  <property name="kdenlive:id">13</property>
  <property name="kdenlive:control_uuid">{d3236ed1-1ce6-4cd1-9553-5ca17aa4acfc}</property>
  <property name="kdenlive:clip_type">1</property>
  <property name="kdenlive:file_size">4307120</property>
  <property name="kdenlive:file_hash">a77a0bdecc3947c795a5766fe3ad2281</property>
  <property name="kdenlive:kextractor">1</property>
  <property name="meta.media.nb_streams">1</property>
  <property name="meta.media.0.stream.type">audio</property>
  <property name="meta.media.0.codec.sample_fmt">fltp</property>
  <property name="meta.media.0.codec.sample_rate">48000</property>
  <property name="meta.media.0.codec.channels">2</property>
  <property name="meta.media.0.codec.layout">stereo</property>
  <property name="meta.media.0.codec.name">aac</property>
  <property name="meta.media.0.codec.long_name">AAC (Advanced Audio Coding)</property>
  <property name="meta.media.0.codec.bit_rate">143540</property>
  <property name="meta.attr.0.stream.handler_name.markup">Bento4 Sound Handler</property>
  <property name="meta.attr.0.stream.vendor_id.markup">[0][0][0][0]</property>
  <property name="meta.attr.major_brand.markup">isom</property>
  <property name="meta.attr.minor_version.markup">512</property>
  <property name="meta.attr.compatible_brands.markup">isomiso2avc1mp41iso5</property>
  <property name="meta.attr.encoder.markup">Lavf59.27.100</property>
  <property name="meta.attr.description.markup">Packed by Bilibili XCoder v2.0.2</property>
  <property name="xml">was here</property>
  <property name="mute_on_pause">0</property>
  <property name="set.test_audio">0</property>
  <property name="set.test_image">1</property>
 </chain>
 <playlist id="playlist0">
  <property name="kdenlive:audio_track">1</property>
  <entry in="00:00:00.000" out="00:01:47.417" producer="chain0">
   <property name="kdenlive:id">13</property>
   <property name="kdenlive:activeeffect">0</property>
   <filter id="filter0">
    <property name="window">75</property>
    <property name="max_gain">20dB</property>
    <property name="level">00:00:00.000=-25</property>
    <property name="channel_mask">-1</property>
    <property name="mlt_service">volume</property>
    <property name="kdenlive_id">volume</property>
    <property name="kdenlive:collapsed">0</property>
   </filter>
  </entry>
 </playlist>
 <playlist id="playlist1">
  <property name="kdenlive:audio_track">1</property>
 </playlist>
 <tractor id="tractor0" in="00:00:00.000" out="00:01:47.417">
  <property name="kdenlive:audio_track">1</property>
  <property name="kdenlive:trackheight">64</property>
  <property name="kdenlive:timeline_active">1</property>
  <property name="kdenlive:collapsed">0</property>
  <property name="kdenlive:thumbs_format"/>
  <property name="kdenlive:audio_rec"/>
  <track hide="video" producer="playlist0"/>
  <track hide="video" producer="playlist1"/>
  <filter id="filter1">
   <property name="window">75</property>
   <property name="max_gain">20dB</property>
   <property name="channel_mask">-1</property>
   <property name="mlt_service">volume</property>
   <property name="internal_added">237</property>
   <property name="disable">1</property>
  </filter>
  <filter id="filter2">
   <property name="channel">-1</property>
   <property name="mlt_service">panner</property>
   <property name="internal_added">237</property>
   <property name="start">0.5</property>
   <property name="disable">1</property>
  </filter>
  <filter id="filter3">
   <property name="iec_scale">0</property>
   <property name="mlt_service">audiolevel</property>
   <property name="dbpeak">1</property>
   <property name="disable">1</property>
  </filter>
 </tractor>
 <chain id="chain1" out="00:01:42.850">
  <property name="length">6172</property>
  <property name="eof">pause</property>
  <property name="resource">tri_2sinc_sol1.mp3</property>
  <property name="mlt_service">avformat-novalidate</property>
  <property name="seekable">1</property>
  <property name="audio_index">0</property>
  <property name="video_index">-1</property>
  <property name="astream">0</property>
  <property name="kdenlive:folderid">-1</property>
  <property name="kdenlive:id">15</property>
  <property name="kdenlive:control_uuid">{648648d1-a6d3-40d0-989a-58ca8f544db5}</property>
  <property name="kdenlive:clip_type">1</property>
  <property name="kdenlive:file_size">617184</property>
  <property name="kdenlive:file_hash">cbbe83467de768aa4e42fdc9545135b3</property>
  <property name="kdenlive:kextractor">1</property>
  <property name="kdenlive:meta.extractor.Bitrate">48 kb/s</property>
  <property name="kdenlive:monitorPosition">0</property>
  <property name="meta.media.nb_streams">1</property>
  <property name="meta.media.0.stream.type">audio</property>
  <property name="meta.media.0.codec.sample_fmt">fltp</property>
  <property name="meta.media.0.codec.sample_rate">24000</property>
  <property name="meta.media.0.codec.channels">1</property>
  <property name="meta.media.0.codec.layout">mono</property>
  <property name="meta.media.0.codec.name">mp3float</property>
  <property name="meta.media.0.codec.long_name">MP3 (MPEG audio layer 3)</property>
  <property name="meta.media.0.codec.bit_rate">48000</property>
  <property name="xml">was here</property>
  <property name="mute_on_pause">0</property>
  <property name="set.test_audio">0</property>
  <property name="set.test_image">1</property>
 </chain>
 <chain id="chain10" out="00:00:02.650">
  <property name="length">160</property>
  <property name="eof">pause</property>
  <property name="resource">D:/视频制作素材/三连+关注.mp3</property>
  <property name="mlt_service">avformat-novalidate</property>
  <property name="seekable">1</property>
  <property name="audio_index">0</property>
  <property name="video_index">-1</property>
  <property name="astream">0</property>
  <property name="kdenlive:folderid">4</property>
  <property name="kdenlive:id">8</property>
  <property name="kdenlive:control_uuid">{95f3f5fa-a2b1-453b-a46f-68f3466e21d9}</property>
  <property name="kdenlive:clip_type">1</property>
  <property name="kdenlive:file_size">15984</property>
  <property name="kdenlive:file_hash">73e348a43c4294bb51597ba39a15a767</property>
  <property name="kdenlive:kextractor">1</property>
  <property name="kdenlive:meta.extractor.Bitrate">48 kb/s</property>
  <property name="meta.media.nb_streams">1</property>
  <property name="meta.media.0.stream.type">audio</property>
  <property name="meta.media.0.codec.sample_fmt">fltp</property>
  <property name="meta.media.0.codec.sample_rate">24000</property>
  <property name="meta.media.0.codec.channels">1</property>
  <property name="meta.media.0.codec.layout">mono</property>
  <property name="meta.media.0.codec.name">mp3float</property>
  <property name="meta.media.0.codec.long_name">MP3 (MPEG audio layer 3)</property>
  <property name="meta.media.0.codec.bit_rate">48000</property>
  <property name="xml">was here</property>
  <property name="mute_on_pause">0</property>
  <property name="set.test_audio">0</property>
  <property name="set.test_image">1</property>
 </chain>
 <playlist id="playlist2">
  <property name="kdenlive:audio_track">1</property>
  <entry in="00:00:00.000" out="00:01:42.850" producer="chain1">
   <property name="kdenlive:id">15</property>
  </entry>
  <entry in="00:00:00.000" out="00:00:02.650" producer="chain10">
   <property name="kdenlive:id">8</property>
  </entry>
 </playlist>
 <playlist id="playlist3">
  <property name="kdenlive:audio_track">1</property>
 </playlist>
 <tractor id="tractor1" in="00:00:00.000" out="00:01:45.517">
  <property name="kdenlive:audio_track">1</property>
  <property name="kdenlive:trackheight">64</property>
  <property name="kdenlive:timeline_active">1</property>
  <property name="kdenlive:collapsed">0</property>
  <property name="kdenlive:thumbs_format"/>
  <property name="kdenlive:audio_rec"/>
  <track hide="video" producer="playlist2"/>
  <track hide="video" producer="playlist3"/>
  <filter id="filter4">
   <property name="window">75</property>
   <property name="max_gain">20dB</property>
   <property name="channel_mask">-1</property>
   <property name="mlt_service">volume</property>
   <property name="internal_added">237</property>
   <property name="disable">1</property>
  </filter>
  <filter id="filter5">
   <property name="channel">-1</property>
   <property name="mlt_service">panner</property>
   <property name="internal_added">237</property>
   <property name="start">0.5</property>
   <property name="disable">1</property>
  </filter>
  <filter id="filter6">
   <property name="iec_scale">0</property>
   <property name="mlt_service">audiolevel</property>
   <property name="dbpeak">1</property>
   <property name="disable">1</property>
  </filter>
 </tractor>
 <chain id="chain11" out="00:02:27.983">
  <property name="length">8880</property>
  <property name="eof">pause</property>
  <property name="resource">D:/python/python-projects/104-manim-hw/media/videos/tri_2sinc_sol1/1080p60/Tri2sinCSol1.mp4</property>
  <property name="mlt_service">avformat-novalidate</property>
  <property name="seekable">1</property>
  <property name="audio_index">-1</property>
  <property name="video_index">0</property>
  <property name="vstream">0</property>
  <property name="kdenlive:folderid">-1</property>
  <property name="kdenlive:id">14</property>
  <property name="kdenlive:control_uuid">{c33def83-2a09-44b1-bdb6-16367a504a2f}</property>
  <property name="mute_on_pause">0</property>
  <property name="kdenlive:clip_type">2</property>
  <property name="kdenlive:file_size">16833802</property>
  <property name="kdenlive:file_hash">b51113faffe252c87df78a36b8374e39</property>
  <property name="kdenlive:kextractor">1</property>
  <property name="kdenlive:monitorPosition">0</property>
  <property name="meta.media.nb_streams">1</property>
  <property name="meta.media.0.stream.type">video</property>
  <property name="meta.media.0.stream.frame_rate">60</property>
  <property name="meta.media.0.stream.sample_aspect_ratio">0</property>
  <property name="meta.media.0.codec.width">1920</property>
  <property name="meta.media.0.codec.height">1080</property>
  <property name="meta.media.0.codec.rotate">0</property>
  <property name="meta.media.0.codec.pix_fmt">yuv420p</property>
  <property name="meta.media.0.codec.sample_aspect_ratio">0</property>
  <property name="meta.media.0.codec.colorspace">709</property>
  <property name="meta.media.0.codec.name">h264</property>
  <property name="meta.media.0.codec.long_name">H.264 / AVC / MPEG-4 AVC / MPEG-4 part 10</property>
  <property name="meta.media.0.codec.bit_rate">891856</property>
  <property name="meta.attr.0.stream.handler_name.markup">VideoHandler</property>
  <property name="meta.attr.0.stream.vendor_id.markup">[0][0][0][0]</property>
  <property name="meta.attr.major_brand.markup">isom</property>
  <property name="meta.attr.minor_version.markup">512</property>
  <property name="meta.attr.compatible_brands.markup">isomiso2avc1mp41</property>
  <property name="meta.attr.encoder.markup">Lavf61.1.100</property>
  <property name="meta.attr.comment.markup">Rendered with Manim Community v0.19.0</property>
  <property name="meta.media.sample_aspect_num">1</property>
  <property name="meta.media.sample_aspect_den">1</property>
  <property name="meta.media.frame_rate_num">60</property>
  <property name="meta.media.frame_rate_den">1</property>
  <property name="meta.media.colorspace">709</property>
  <property name="meta.media.color_trc">2</property>
  <property name="meta.media.has_b_frames">2</property>
  <property name="meta.media.width">1920</property>
  <property name="meta.media.height">1080</property>
  <property name="meta.media.aspect_ratio">1</property>
  <property name="meta.media.color_range">mpeg</property>
  <property name="xml">was here</property>
  <property name="meta.media.top_field_first">0</property>
  <property name="meta.media.progressive">1</property>
  <property name="set.test_audio">1</property>
  <property name="set.test_image">0</property>
 </chain>
 <chain id="chain12" out="00:00:04.550">
  <property name="length">274</property>
  <property name="eof">pause</property>
  <property name="resource">D:/视频制作素材/三连+关注-南澳岛背景版.mp4</property>
  <property name="mlt_service">avformat-novalidate</property>
  <property name="seekable">1</property>
  <property name="audio_index">1</property>
  <property name="video_index">0</property>
  <property name="vstream">0</property>
  <property name="astream">0</property>
  <property name="kdenlive:folderid">4</property>
  <property name="kdenlive:id">7</property>
  <property name="kdenlive:control_uuid">{3918eb7b-bed0-441d-9329-b0856ef7d02d}</property>
  <property name="mute_on_pause">0</property>
  <property name="kdenlive:clip_type">0</property>
  <property name="kdenlive:file_size">2493987</property>
  <property name="kdenlive:file_hash">c0852781be4f94f74f00481814faf440</property>
  <property name="kdenlive:kextractor">1</property>
  <property name="meta.media.nb_streams">2</property>
  <property name="meta.media.0.stream.type">video</property>
  <property name="meta.media.0.stream.frame_rate">60</property>
  <property name="meta.media.0.stream.sample_aspect_ratio">1</property>
  <property name="meta.media.0.codec.width">1920</property>
  <property name="meta.media.0.codec.height">1080</property>
  <property name="meta.media.0.codec.rotate">0</property>
  <property name="meta.media.0.codec.pix_fmt">yuv420p</property>
  <property name="meta.media.0.codec.sample_aspect_ratio">1</property>
  <property name="meta.media.0.codec.colorspace">709</property>
  <property name="meta.media.0.codec.color_trc">1</property>
  <property name="meta.media.0.codec.name">h264</property>
  <property name="meta.media.0.codec.long_name">H.264 / AVC / MPEG-4 AVC / MPEG-4 part 10</property>
  <property name="meta.media.0.codec.bit_rate">4367287</property>
  <property name="meta.attr.0.stream.handler_name.markup">VideoHandler</property>
  <property name="meta.attr.0.stream.vendor_id.markup">[0][0][0][0]</property>
  <property name="meta.media.1.stream.type">audio</property>
  <property name="meta.media.1.codec.sample_fmt">fltp</property>
  <property name="meta.media.1.codec.sample_rate">48000</property>
  <property name="meta.media.1.codec.channels">2</property>
  <property name="meta.media.1.codec.layout">stereo</property>
  <property name="meta.media.1.codec.name">aac</property>
  <property name="meta.media.1.codec.long_name">AAC (Advanced Audio Coding)</property>
  <property name="meta.media.1.codec.bit_rate">2279</property>
  <property name="meta.attr.1.stream.handler_name.markup">SoundHandler</property>
  <property name="meta.attr.1.stream.vendor_id.markup">[0][0][0][0]</property>
  <property name="meta.attr.major_brand.markup">isom</property>
  <property name="meta.attr.minor_version.markup">512</property>
  <property name="meta.attr.compatible_brands.markup">isomiso2avc1mp41</property>
  <property name="meta.attr.encoder.markup">Lavf61.7.100</property>
  <property name="meta.media.sample_aspect_num">1</property>
  <property name="meta.media.sample_aspect_den">1</property>
  <property name="meta.media.frame_rate_num">60</property>
  <property name="meta.media.frame_rate_den">1</property>
  <property name="meta.media.colorspace">709</property>
  <property name="meta.media.color_trc">1</property>
  <property name="meta.media.has_b_frames">2</property>
  <property name="meta.media.width">1920</property>
  <property name="meta.media.height">1080</property>
  <property name="meta.media.aspect_ratio">1</property>
  <property name="meta.media.color_range">mpeg</property>
  <property name="xml">was here</property>
  <property name="meta.media.top_field_first">0</property>
  <property name="meta.media.progressive">1</property>
  <property name="set.test_audio">1</property>
  <property name="set.test_image">0</property>
 </chain>
 <playlist id="playlist4">
  <entry in="00:00:00.000" out="00:00:06.717" producer="chain11">
   <property name="kdenlive:id">14</property>
  </entry>
  <entry in="00:00:10.950" out="00:00:32.450" producer="chain11">
   <property name="kdenlive:id">14</property>
  </entry>
  <entry in="00:00:37.850" out="00:00:41.683" producer="chain11">
   <property name="kdenlive:id">14</property>
  </entry>
  <entry in="00:00:46.000" out="00:00:53.883" producer="chain11">
   <property name="kdenlive:id">14</property>
  </entry>
  <entry in="00:01:00.950" out="00:01:12.350" producer="chain11">
   <property name="kdenlive:id">14</property>
  </entry>
  <entry in="00:01:17.033" out="00:01:20.750" producer="chain11">
   <property name="kdenlive:id">14</property>
  </entry>
  <entry in="00:01:24.900" out="00:01:30.267" producer="chain11">
   <property name="kdenlive:id">14</property>
  </entry>
  <entry in="00:01:34.867" out="00:01:57.750" producer="chain11">
   <property name="kdenlive:id">14</property>
  </entry>
  <entry in="00:02:02.133" out="00:02:14.167" producer="chain11">
   <property name="kdenlive:id">14</property>
  </entry>
  <entry in="00:02:15.933" out="00:02:23.300" producer="chain11">
   <property name="kdenlive:id">14</property>
  </entry>
  <entry in="00:00:00.000" out="00:00:04.550" producer="chain12">
   <property name="kdenlive:id">7</property>
  </entry>
 </playlist>
 <playlist id="playlist5"/>
 <tractor id="tractor2" in="00:00:00.000" out="00:01:47.417">
  <property name="kdenlive:trackheight">64</property>
  <property name="kdenlive:timeline_active">1</property>
  <property name="kdenlive:collapsed">0</property>
  <property name="kdenlive:thumbs_format"/>
  <property name="kdenlive:audio_rec"/>
  <track hide="audio" producer="playlist4"/>
  <track hide="audio" producer="playlist5"/>
 </tractor>
 <playlist id="playlist6"/>
 <playlist id="playlist7"/>
 <tractor id="tractor3" in="00:00:00.000">
  <property name="kdenlive:trackheight">64</property>
  <property name="kdenlive:timeline_active">1</property>
  <property name="kdenlive:collapsed">0</property>
  <property name="kdenlive:thumbs_format"/>
  <property name="kdenlive:audio_rec"/>
  <track hide="audio" producer="playlist6"/>
  <track hide="audio" producer="playlist7"/>
 </tractor>
 <tractor id="tractor5" in="00:00:00.000" out="00:01:47.417">
  <property name="kdenlive:duration">00:01:47.433</property>
  <property name="kdenlive:maxduration">6446</property>
  <property name="kdenlive:clipname">Sequence 1</property>
  <property name="kdenlive:description"/>
  <property name="kdenlive:uuid">{b9d2d9c6-f1b5-44c2-a06a-f41dde4e98e6}</property>
  <property name="kdenlive:producer_type">17</property>
  <property name="kdenlive:control_uuid">{b9d2d9c6-f1b5-44c2-a06a-f41dde4e98e6}</property>
  <property name="kdenlive:id">3</property>
  <property name="kdenlive:clip_type">0</property>
  <property name="kdenlive:file_hash">cd3d1c7b3c05e58e8806e6d40de92b42</property>
  <property name="kdenlive:folderid">2</property>
  <property name="kdenlive:sequenceproperties.activeTrack">0</property>
  <property name="kdenlive:sequenceproperties.audioTarget">1</property>
  <property name="kdenlive:sequenceproperties.disablepreview">0</property>
  <property name="kdenlive:sequenceproperties.documentuuid">{b9d2d9c6-f1b5-44c2-a06a-f41dde4e98e6}</property>
  <property name="kdenlive:sequenceproperties.globalSubtitleStyles">[
]
</property>
  <property name="kdenlive:sequenceproperties.hasAudio">1</property>
  <property name="kdenlive:sequenceproperties.hasVideo">1</property>
  <property name="kdenlive:sequenceproperties.hidesubtitle">0</property>
  <property name="kdenlive:sequenceproperties.position">1865</property>
  <property name="kdenlive:sequenceproperties.scrollPos">0</property>
  <property name="kdenlive:sequenceproperties.subtitlesList">[
    {
        "file": "C:/Users/admin/AppData/Local/Temp/1760601537593-{c879db1f-6b19-4f11-99df-a60d1b20915a}.ass",
        "id": 0,
        "name": "Subtitles"
    }
]
</property>
  <property name="kdenlive:sequenceproperties.tracks">4</property>
  <property name="kdenlive:sequenceproperties.tracksCount">4</property>
  <property name="kdenlive:sequenceproperties.verticalzoom">1</property>
  <property name="kdenlive:sequenceproperties.videoTarget">2</property>
  <property name="kdenlive:sequenceproperties.zonein">0</property>
  <property name="kdenlive:sequenceproperties.zoneout">75</property>
  <property name="kdenlive:sequenceproperties.zoom">8</property>
  <property name="kdenlive:sequenceproperties.groups">[
]
</property>
  <property name="kdenlive:sequenceproperties.guides">[
]
</property>
  <track producer="producer0"/>
  <track producer="tractor0"/>
  <track producer="tractor1"/>
  <track producer="tractor2"/>
  <track producer="tractor3"/>
  <transition id="transition0">
   <property name="a_track">0</property>
   <property name="b_track">1</property>
   <property name="mlt_service">mix</property>
   <property name="kdenlive_id">mix</property>
   <property name="internal_added">237</property>
   <property name="always_active">1</property>
   <property name="accepts_blanks">1</property>
   <property name="sum">1</property>
  </transition>
  <transition id="transition1">
   <property name="a_track">0</property>
   <property name="b_track">2</property>
   <property name="mlt_service">mix</property>
   <property name="kdenlive_id">mix</property>
   <property name="internal_added">237</property>
   <property name="always_active">1</property>
   <property name="accepts_blanks">1</property>
   <property name="sum">1</property>
  </transition>
  <transition id="transition2">
   <property name="a_track">0</property>
   <property name="b_track">3</property>
   <property name="compositing">0</property>
   <property name="distort">0</property>
   <property name="rotate_center">0</property>
   <property name="mlt_service">qtblend</property>
   <property name="kdenlive_id">qtblend</property>
   <property name="internal_added">237</property>
   <property name="always_active">1</property>
  </transition>
  <transition id="transition3">
   <property name="a_track">0</property>
   <property name="b_track">4</property>
   <property name="compositing">0</property>
   <property name="distort">0</property>
   <property name="rotate_center">0</property>
   <property name="mlt_service">qtblend</property>
   <property name="kdenlive_id">qtblend</property>
   <property name="internal_added">237</property>
   <property name="always_active">1</property>
  </transition>
  <filter id="filter7">
   <property name="window">75</property>
   <property name="max_gain">20dB</property>
   <property name="channel_mask">-1</property>
   <property name="mlt_service">volume</property>
   <property name="internal_added">237</property>
   <property name="disable">1</property>
  </filter>
  <filter id="filter8">
   <property name="channel">-1</property>
   <property name="mlt_service">panner</property>
   <property name="internal_added">237</property>
   <property name="start">0.5</property>
   <property name="disable">1</property>
  </filter>
  <filter id="filter9">
   <property name="mlt_service">avfilter.subtitles</property>
   <property name="av.alpha">1</property>
   <property name="internal_added">237</property>
   <property name="av.filename">tri_2sinc_sol1.kdenlive.ass</property>
  </filter>
 </tractor>
 <playlist id="main_bin">
  <property name="kdenlive:folder.-1.2">Sequences</property>
  <property name="kdenlive:folder.-1.4">视频制作素材</property>
  <property name="kdenlive:sequenceFolder">2</property>
  <property name="kdenlive:docproperties.activetimeline">{b9d2d9c6-f1b5-44c2-a06a-f41dde4e98e6}</property>
  <property name="kdenlive:docproperties.audioChannels">2</property>
  <property name="kdenlive:docproperties.binsort">0</property>
  <property name="kdenlive:docproperties.browserurl">C:/Users/admin/Videos/</property>
  <property name="kdenlive:docproperties.documentid">1760601537593</property>
  <property name="kdenlive:docproperties.enableTimelineZone">0</property>
  <property name="kdenlive:docproperties.enableexternalproxy">0</property>
  <property name="kdenlive:docproperties.enableproxy">1</property>
  <property name="kdenlive:docproperties.externalproxyparams">./;;.LRV;./;;.MP4</property>
  <property name="kdenlive:docproperties.generateimageproxy">0</property>
  <property name="kdenlive:docproperties.generateproxy">0</property>
  <property name="kdenlive:docproperties.guidesCategories">[
    {
        "color": "#9b59b6",
        "comment": "类别 1",
        "index": 0
    },
    {
        "color": "#3daee9",
        "comment": "类别 2",
        "index": 1
    },
    {
        "color": "#1abc9c",
        "comment": "类别 3",
        "index": 2
    },
    {
        "color": "#1cdc9a",
        "comment": "类别 4",
        "index": 3
    },
    {
        "color": "#c9ce3b",
        "comment": "类别 5",
        "index": 4
    },
    {
        "color": "#fdbc4b",
        "comment": "类别 6",
        "index": 5
    },
    {
        "color": "#f39c1f",
        "comment": "类别 7",
        "index": 6
    },
    {
        "color": "#f47750",
        "comment": "类别 8",
        "index": 7
    },
    {
        "color": "#da4453",
        "comment": "类别 9",
        "index": 8
    }
]
</property>
  <property name="kdenlive:docproperties.kdenliveversion">25.08.1</property>
  <property name="kdenlive:docproperties.opensequences">{b9d2d9c6-f1b5-44c2-a06a-f41dde4e98e6}</property>
  <property name="kdenlive:docproperties.previewextension"/>
  <property name="kdenlive:docproperties.previewparameters"/>
  <property name="kdenlive:docproperties.profile">atsc_1080p_60</property>
  <property name="kdenlive:docproperties.proxyextension"/>
  <property name="kdenlive:docproperties.proxyimageminsize">2000</property>
  <property name="kdenlive:docproperties.proxyimagesize">800</property>
  <property name="kdenlive:docproperties.proxyminsize">1000</property>
  <property name="kdenlive:docproperties.proxyparams"/>
  <property name="kdenlive:docproperties.proxyresize">640</property>
  <property name="kdenlive:docproperties.seekOffset">7500</property>
  <property name="kdenlive:docproperties.sessionid">{cef2269a-9852-417c-8c59-f2842a2e7235}</property>
  <property name="kdenlive:docproperties.uuid">{b9d2d9c6-f1b5-44c2-a06a-f41dde4e98e6}</property>
  <property name="kdenlive:docproperties.version">1.1</property>
  <property name="kdenlive:expandedFolders">4</property>
  <property name="kdenlive:binZoom">4</property>
  <property name="kdenlive:extraBins">project_bin:-1:0</property>
  <property name="kdenlive:documentnotes"/>
  <property name="kdenlive:documentnotesversion">2</property>
  <property name="kdenlive:docproperties.rendercategory">Generic (HD for web, mobile devices...)</property>
  <property name="kdenlive:docproperties.rendercustomquality">-1</property>
  <property name="kdenlive:docproperties.renderendguide">-1</property>
  <property name="kdenlive:docproperties.renderexportaudio">0</property>
  <property name="kdenlive:docproperties.renderfullcolorrange">0</property>
  <property name="kdenlive:docproperties.rendermode">0</property>
  <property name="kdenlive:docproperties.renderplay">0</property>
  <property name="kdenlive:docproperties.renderpreview">0</property>
  <property name="kdenlive:docproperties.renderprofile">MP4-H264/AAC</property>
  <property name="kdenlive:docproperties.renderrescale">0</property>
  <property name="kdenlive:docproperties.renderrescaleheight">540</property>
  <property name="kdenlive:docproperties.renderrescalewidth">960</property>
  <property name="kdenlive:docproperties.renderspeed">6</property>
  <property name="kdenlive:docproperties.renderstartguide">-1</property>
  <property name="kdenlive:docproperties.renderstemaudio">0</property>
  <property name="kdenlive:docproperties.rendertcoverlay">0</property>
  <property name="kdenlive:docproperties.rendertctype">-1</property>
  <property name="kdenlive:docproperties.rendertwopass">0</property>
  <property name="kdenlive:docproperties.renderurl">tri_2sinc_sol1.mp4</property>
  <property name="xml_retain">1</property>
  <entry in="00:00:00.000" out="00:00:04.983" producer="producer1"/>
  <entry in="00:00:00.000" out="00:00:04.533" producer="tractor4"/>
  <entry in="00:00:00.000" out="00:00:04.550" producer="chain3"/>
  <entry in="00:00:00.000" out="00:00:02.650" producer="chain2"/>
  <entry in="00:00:00.000" out="00:00:04.983" producer="producer2"/>
  <entry in="00:00:00.000" out="00:00:01.033" producer="chain4"/>
  <entry in="00:00:00.000" out="00:00:04.533" producer="chain5"/>
  <entry in="00:00:00.000" out="00:00:04.517" producer="chain7"/>
  <entry in="00:00:00.000" out="00:03:24.333" producer="chain6"/>
  <entry in="00:00:00.000" out="00:02:27.983" producer="chain8"/>
  <entry in="00:00:00.000" out="00:01:42.850" producer="chain9"/>
  <entry in="00:00:00.000" out="00:02:07.033" producer="tractor5"/>
 </playlist>
 <tractor id="tractor6" in="00:00:00.000" out="00:01:47.417">
  <property name="kdenlive:projectTractor">1</property>
  <track in="00:00:00.000" out="00:01:47.417" producer="tractor5"/>
 </tractor>
</mlt>
